<?xml version="1.0" encoding="UTF-8" standalone="no"?>
<!DOCTYPE svg PUBLIC "-//W3C//DTD SVG 1.1//EN" "http://www.w3.org/Graphics/SVG/1.1/DTD/svg11.dtd">
<!-- Generated by Microsoft Visio, SVG Export build__levels.svg new-page -->
<svg xmlns="http://www.w3.org/2000/svg" xmlns:xlink="http://www.w3.org/1999/xlink" xmlns:ev="http://www.w3.org/2001/xml-events"
		width="786" height="359" viewBox="0 0 785.578 359.054" xml:space="preserve" color-interpolation-filters="sRGB"
		class="st20">
	<style type="text/css">
	<![CDATA[
		.st1 {fill:#ffcc00;stroke:none;stroke-linecap:round;stroke-linejoin:round;stroke-width:0.72}
		.st2 {fill:none;marker-end:url(#mrkr13-6);stroke:none;stroke-linecap:butt;stroke-width:1.5}
		.st3 {fill:#ffcc00;fill-opacity:1;stroke:#ffcc00;stroke-opacity:1;stroke-width:0.37313432835821}
		.st4 {fill:#000000;font-family:Arial;font-size:1.33333em;font-weight:bold}
		.st5 {stroke:#000000;stroke-linecap:butt;stroke-width:1.5}
		.st6 {fill:#000000;font-family:Arial;font-size:1.33333em}
		.st7 {fill:#ffffff;marker-end:url(#mrkr13-136);stroke:#000000;stroke-linecap:butt;stroke-width:1.5}
		.st8 {fill:#000000;fill-opacity:1;stroke:#000000;stroke-opacity:1;stroke-width:0.37313432835821}
		.st9 {fill:#ffffff;stroke:#010202;stroke-linecap:butt;stroke-width:1.5}
		.st10 {fill:#202021;stroke:none;stroke-linecap:butt;stroke-width:1.5}
		.st11 {fill:#ffcc09;stroke:#010202;stroke-linecap:butt;stroke-width:1.5}
		.st12 {fill:none}
		.st13 {stroke:#010202;stroke-linecap:round;stroke-linejoin:round;stroke-width:1.5}
		.st14 {fill:#ffcd04;stroke:#010202;stroke-linecap:round;stroke-linejoin:round;stroke-width:1.5}
		.st15 {fill:#ffffff;stroke:none;stroke-linecap:butt;stroke-width:1.5}
		.st16 {fill:#12100b;stroke:none;stroke-linecap:butt;stroke-width:1.5}
		.st17 {fill:#ffcd04;stroke:none;stroke-linecap:butt;stroke-width:1.5}
		.st18 {marker-end:url(#mrkr3-197);stroke:#000000;stroke-linecap:butt;stroke-width:1.5}
		.st19 {fill:#000000;fill-opacity:1;stroke:#000000;stroke-opacity:1;stroke-width:0.45454545454545}
		.st20 {fill:none;fill-rule:evenodd;font-size:12px;overflow:visible;stroke-linecap:square;stroke-miterlimit:3}
	]]>
	</style>

	<defs id="Patterns_And_Gradients">
		<linearGradient id="grad0-11" x1="0" y1="0" x2="1" y2="0" gradientTransform="rotate(270 0.5 0.5)">
			<stop offset="0" stop-color="#f2f2f2" stop-opacity="1"/>
			<stop offset="1" stop-color="#ffffff" stop-opacity="1"/>
		</linearGradient>
	</defs>
	<defs id="Markers">
		<g id="lend13">
			<path d="M 3 1 L 0 0 L 3 -1 L 3 1 " style="stroke:none"/>
		</g>
		<marker id="mrkr13-6" class="st3" refX="-8.04" orient="auto" markerUnits="strokeWidth" overflow="visible">
			<use xlink:href="#lend13" transform="scale(-2.68,-2.68) "/>
		</marker>
		<marker id="mrkr13-136" class="st8" refX="-8.04" orient="auto" markerUnits="strokeWidth" overflow="visible">
			<use xlink:href="#lend13" transform="scale(-2.68,-2.68) "/>
		</marker>
		<g id="lend3">
			<path d="M 2 1 L 0 0 L 2 -1 " style="stroke-linecap:round;stroke-linejoin:round;fill:none"/>
		</g>
		<marker id="mrkr3-197" class="st19" orient="auto" markerUnits="strokeWidth" overflow="visible">
			<use xlink:href="#lend3" transform="scale(-2.2,-2.2) "/>
		</marker>
	</defs>
	<g>
		<title>scheme1</title>
		<g id="shape212-1" transform="translate(164.026,-332.086)">
			<title>Горизонтальная линия выноски.540</title>
			<path d="M0 359.05 L134.31 359.05 L0 359.05 Z" class="st1"/>
		</g>
		<g id="shape213-3" transform="translate(34.4279,-303.74)">
			<title>Text (14).543</title>
			<desc>Source files</desc>
			<rect x="0" y="330.708" width="133.228" height="28.3465" class="st2"/>
			<text x="21.26" y="349.68" class="st4">Source files</text>		</g>
		<g id="shape214-8" transform="translate(499.208,109.374) rotate(90.5963)">
			<title>Line.544</title>
			<path d="M0 359.05 L14.88 359.05" class="st5"/>
		</g>
		<g id="shape215-13" transform="translate(139.593,-239.012)">
			<title>Line.7</title>
			<path d="M0 359.05 L14.17 359.05" class="st5"/>
		</g>
		<g id="shape216-17" transform="translate(144.142,-229.472)">
			<title>Text (14).8</title>
			<desc>button/</desc>
			<rect x="0" y="339.212" width="84.4189" height="19.8425" class="st2"/>
			<text x="17.74" y="353.93" class="st6">button/</text>		</g>
		<g id="shape217-21" transform="translate(174.581,-219.169)">
			<title>Line.11</title>
			<path d="M0 359.05 L14.17 359.05" class="st5"/>
		</g>
		<g id="shape218-25" transform="translate(39.8268,-275.393)">
			<title>Text (14).17</title>
			<desc>project/</desc>
			<rect x="0" y="339.212" width="84.6011" height="19.8425" class="st2"/>
			<text x="16.07" y="353.93" class="st6">project/</text>		</g>
		<g id="shape219-29" transform="translate(94.2389,-261.22)">
			<title>Line.18</title>
			<path d="M0 359.05 L19.84 359.05" class="st5"/>
		</g>
		<g id="shape220-33" transform="translate(453.293,86.4957) rotate(90)">
			<title>Line.19</title>
			<path d="M0 359.05 L11.34 359.05" class="st5"/>
		</g>
		<g id="shape221-37" transform="translate(534.222,130.814) rotate(90)">
			<title>Line.43</title>
			<path d="M0 359.05 L26.46 359.05" class="st5"/>
		</g>
		<g id="shape222-41" transform="translate(181.701,-197.059)">
			<title>Text (14).44</title>
			<desc>button.js</desc>
			<rect x="0" y="349.133" width="85.4515" height="9.92126" class="st2"/>
			<text x="12.48" y="358.89" class="st6">button.js</text>		</g>
		<g id="shape223-45" transform="translate(187.937,-214.067)">
			<title>Text (14).45</title>
			<desc>button.css</desc>
			<rect x="0" y="349.133" width="85.3769" height="9.92126" class="st2"/>
			<text x="6.22" y="358.89" class="st6">button.css</text>		</g>
		<g id="shape224-49" transform="translate(174.581,-202.161)">
			<title>Line.48</title>
			<path d="M0 359.05 L14.17 359.05" class="st5"/>
		</g>
		<g id="shape225-53" transform="translate(498.63,188.816) rotate(89.2507)">
			<title>Line.49</title>
			<path d="M0 359.05 L12.69 359.05" class="st5"/>
		</g>
		<g id="shape226-57" transform="translate(139.772,-152.854)">
			<title>Line.51</title>
			<path d="M0 359.05 L14.17 359.05" class="st5"/>
		</g>
		<g id="shape227-61" transform="translate(143.7,-142.65)">
			<title>Text (14).52</title>
			<desc>button/</desc>
			<rect x="0" y="339.212" width="85.0394" height="19.8425" class="st2"/>
			<text x="18.05" y="353.93" class="st6">button/</text>		</g>
		<g id="shape228-65" transform="translate(174.76,-134.13)">
			<title>Line.53</title>
			<path d="M0 359.05 L14.17 359.05" class="st5"/>
		</g>
		<g id="shape229-69" transform="translate(91.4042,-176.649)">
			<title>Line.54</title>
			<path d="M0 359.05 L19.84 359.05" class="st5"/>
		</g>
		<g id="shape230-73" transform="translate(450.459,168.7) rotate(90)">
			<title>Line.55</title>
			<path d="M0 359.05 L14.17 359.05" class="st5"/>
		</g>
		<g id="shape231-77" transform="translate(534.222,215.287) rotate(90)">
			<title>Line.56</title>
			<path d="M0 359.05 L26.95 359.05" class="st5"/>
		</g>
		<g id="shape232-81" transform="translate(182.126,-112.019)">
			<title>Text (14).57</title>
			<desc>button.js</desc>
			<rect x="0" y="349.133" width="84.6384" height="9.92126" class="st2"/>
			<text x="12.08" y="358.89" class="st6">button.js</text>		</g>
		<g id="shape233-85" transform="translate(188.362,-129.027)">
			<title>Text (14).58</title>
			<desc>button.css</desc>
			<rect x="0" y="349.133" width="84.5638" height="9.92126" class="st2"/>
			<text x="5.82" y="358.89" class="st6">button.css</text>		</g>
		<g id="shape234-89" transform="translate(174.76,-117.122)">
			<title>Line.59</title>
			<path d="M0 359.05 L14.17 359.05" class="st5"/>
		</g>
		<g id="shape235-93" transform="translate(499.073,272.956) rotate(90)">
			<title>Line.60</title>
			<path d="M0 359.05 L18.2 359.05" class="st5"/>
		</g>
		<g id="shape236-97" transform="translate(139.593,-67.8972)">
			<title>Line.62</title>
			<path d="M0 359.05 L14.17 359.05" class="st5"/>
		</g>
		<g id="shape237-101" transform="translate(144.142,-57.6924)">
			<title>Text (14).63</title>
			<desc>button/</desc>
			<rect x="0" y="339.212" width="84.4189" height="19.8425" class="st2"/>
			<text x="17.74" y="353.93" class="st6">button/</text>		</g>
		<g id="shape238-105" transform="translate(174.581,-49.0903)">
			<title>Line.64</title>
			<path d="M0 359.05 L14.17 359.05" class="st5"/>
		</g>
		<g id="shape239-109" transform="translate(91.4042,-91.61)">
			<title>Line.65</title>
			<path d="M0 359.05 L19.84 359.05" class="st5"/>
		</g>
		<g id="shape240-113" transform="translate(450.459,256.574) rotate(90)">
			<title>Line.66</title>
			<path d="M0 359.05 L11.34 359.05" class="st5"/>
		</g>
		<g id="shape241-117" transform="translate(534.222,300.893) rotate(90)">
			<title>Line.67</title>
			<path d="M0 359.05 L26.46 359.05" class="st5"/>
		</g>
		<g id="shape242-121" transform="translate(181.701,-26.9801)">
			<title>Text (14).68</title>
			<desc>button.js</desc>
			<rect x="0" y="349.133" width="85.4515" height="9.92126" class="st2"/>
			<text x="12.48" y="358.89" class="st6">button.js</text>		</g>
		<g id="shape243-125" transform="translate(188.362,-43.988)">
			<title>Text (14).69</title>
			<desc>button.css</desc>
			<rect x="0" y="349.133" width="84.5638" height="9.92126" class="st2"/>
			<text x="5.82" y="358.89" class="st6">button.css</text>		</g>
		<g id="shape244-129" transform="translate(174.581,-32.0825)">
			<title>Line.70</title>
			<path d="M0 359.05 L14.17 359.05" class="st5"/>
		</g>
		<g id="shape245-133" transform="translate(109.706,-162.007)">
			<title>Gray-frame Round Edge.560</title>
			<desc>desktop.blocks/</desc>
			<rect x="0" y="329.73" width="144.813" height="29.3239" rx="14.662" ry="14.662" class="st7"/>
			<text x="17.27" y="348.39" class="st6">desktop.blocks/</text>		</g>
		<g id="shape246-138" transform="translate(111.247,-248.464)">
			<title>Yellow-frame Round Edge.561</title>
			<desc>common.blocks/</desc>
			<rect x="0" y="329.73" width="144.813" height="29.3239" rx="14.662" ry="14.662" class="st7"/>
			<text x="14.61" y="348.39" class="st6">common.blocks/</text>		</g>
		<g id="shape247-142" transform="translate(108.166,-76.968)">
			<title>Black-frame Round Edge.562</title>
			<desc>touch.blocks/</desc>
			<rect x="0" y="329.73" width="144.813" height="29.3239" rx="14.662" ry="14.662" class="st7"/>
			<text x="25.72" y="348.39" class="st6">touch.blocks/</text>		</g>
		<g id="group248-146" transform="translate(328.664,-126.858)">
			<title>Notebook.564</title>
			<g id="group249-147" transform="translate(14.1732,5.68434E-014)">
				<title>g5</title>
				<g id="shape250-148">
					<title>path7</title>
					<path d="M85.66 352.26 L69.34 352.26 L0 352.26 L0 353.62 L0 354.98 C-0 357.22 1.84 359.05 4.08 359.05 L156.36
								 359.05 C158.61 359.05 160.44 357.22 160.44 354.98 L160.44 353.62 L160.44 352.26 L85.66 352.26 Z"
							class="st9"/>
				</g>
				<g id="shape251-150" transform="translate(9.51768,-6.79835)">
					<title>path9</title>
					<path d="M133.25 265.24 L8.16 265.24 C3.67 265.24 0 268.91 0 273.4 L0 359.05 L59.83 359.05 L66.62 359.05 L67.98
								 359.05 L76.14 359.05 L141.41 359.05 L141.41 273.4 C141.41 268.91 137.73 265.24 133.25 265.24 Z"
							class="st9"/>
				</g>
				<g id="shape252-152" transform="translate(78.8608,-95.1768)">
					<title>circle11</title>
					<path d="M2.72 357.69 C2.72 358.45 2.11 359.05 1.36 359.05 C0.61 359.05 0 358.45 0 357.69 C0 356.94 0.61 356.33
								 1.36 356.33 C2.11 356.33 2.72 356.94 2.72 357.69 Z" class="st10"/>
				</g>
				<g id="group253-154" transform="translate(50.3078,-27.1934)">
					<title>g13</title>
					<g id="shape254-155">
						<title>path15</title>
						<path d="M35.35 334.58 L24.47 334.58 C24.47 318.26 33.99 306.03 33.99 306.03 L4.08 306.03 C1.84 306.03 0
									 307.86 0 310.11 L0 354.98 C-0 357.22 1.84 359.05 4.08 359.05 L35.96 359.05 C32.97 346.41 35.35
									 334.58 35.35 334.58 Z" class="st11"/>
					</g>
					<g id="group255-157" transform="translate(8.15801,5.68434E-014)">
						<title>g17</title>
						<g id="shape256-158" transform="translate(2.51799E-013,-12.237)">
							<title>path19</title>
							<path d="M0 353.62 C-0 353.62 9.52 359.05 21.75 359.05 C33.99 359.05 43.51 353.62 43.51 353.62 L0 353.62
										 Z" class="st12"/>
							<path d="M0 353.62 C-0 353.62 9.52 359.05 21.75 359.05 C33.99 359.05 43.51 353.62 43.51 353.62"
									class="st13"/>
						</g>
						<g id="shape257-161" transform="translate(6.79835,-36.7111)">
							<title>line21</title>
							<path d="M0 353.62 L0 359.05 L0 353.62 Z" class="st12"/>
							<path d="M0 353.62 L0 359.05" class="st13"/>
						</g>
						<g id="shape258-164" transform="translate(33.9917,-36.7111)">
							<title>line23</title>
							<path d="M0 353.62 L0 359.05 L0 353.62 Z" class="st12"/>
							<path d="M0 353.62 L0 359.05" class="st13"/>
						</g>
						<g id="shape259-167" transform="translate(25.8337,5.68434E-014)">
							<title>path27</title>
							<path d="M1.97 359.05 L21.75 359.05 C24 359.05 25.83 357.22 25.83 354.98 L25.83 310.11 C25.83 307.86
										 24 306.03 21.75 306.03 L0 306.03 L1.97 359.05 Z" class="st12"/>
							<path d="M1.97 359.05 L21.75 359.05 C24 359.05 25.83 357.22 25.83 354.98 L25.83 310.11 C25.83 307.86
										 24 306.03 21.75 306.03 L0 306.03" class="st13"/>
						</g>
					</g>
				</g>
				<g id="shape260-170" transform="translate(16.316,-13.5967)">
					<title>rect29</title>
					<rect x="0" y="280.194" width="127.809" height="78.8608" class="st14"/>
				</g>
			</g>
		</g>
		<g id="group261-172" transform="translate(552.778,-52.0232)">
			<title>iPhone.565</title>
			<g id="group262-173">
				<title>Sheet.262</title>
				<g id="group263-174">
					<title>Sheet.263</title>
					<g id="shape264-175" transform="translate(0.779066,-0.779066)">
						<title>Sheet.264</title>
						<path d="M3.9 359.05 C1.75 359.05 0 357.3 0 355.16 L0 286.6 C0 284.46 1.75 282.71 3.9 282.71 L31.94 282.71
									 C34.08 282.71 35.84 284.46 35.84 286.6 L35.84 355.16 C35.84 357.3 34.08 359.05 31.94 359.05
									 L3.9 359.05 Z" class="st15"/>
					</g>
					<g id="shape265-177">
						<title>Sheet.265</title>
						<path d="M32.72 282.71 C34.43 282.71 35.84 284.11 35.84 285.82 L35.84 354.38 C35.84 356.09 34.43 357.5 32.72
									 357.5 L4.67 357.5 C2.96 357.5 1.56 356.09 1.56 354.38 L1.56 285.82 C1.56 284.11 2.96 282.71
									 4.67 282.71 L32.72 282.71 ZM32.72 281.15 L4.67 281.15 C2.1 281.15 0 283.25 0 285.82 L0 354.38
									 C0 356.95 2.1 359.05 4.67 359.05 L32.72 359.05 C35.29 359.05 37.4 356.95 37.4 354.38 L37.4 285.82
									 C37.4 283.25 35.29 281.15 32.72 281.15 Z" class="st16"/>
					</g>
				</g>
				<g id="group266-179" transform="translate(3.11626,-10.9069)">
					<title>Sheet.266</title>
					<g id="shape267-180" transform="translate(0.779066,-0.779066)">
						<title>Sheet.267</title>
						<rect x="0" y="304.52" width="29.6045" height="54.5346" class="st17"/>
					</g>
					<g id="shape268-182">
						<title>Sheet.268</title>
						<path d="M29.6 304.52 L29.6 357.5 L1.56 357.5 L1.56 304.52 L29.6 304.52 ZM30.38 302.96 L0.78 302.96 C0.35
									 302.96 0 303.31 0 303.74 L0 358.28 C0 358.7 0.35 359.05 0.78 359.05 L30.38 359.05 C30.81 359.05
									 31.16 358.7 31.16 358.28 L31.16 303.74 C31.16 303.31 30.81 302.96 30.38 302.96 Z" class="st16"/>
					</g>
				</g>
				<g id="shape269-184" transform="translate(16.3604,-3.89533)">
					<title>Sheet.269</title>
					<ellipse cx="2.3372" cy="356.717" rx="2.3372" ry="2.3372" class="st9"/>
				</g>
				<g id="shape270-186" transform="translate(21.0348,647.993) rotate(180)">
					<title>Sheet.270</title>
					<path d="M0 359.05 L4.67 359.05" class="st13"/>
				</g>
				<g id="shape271-189" transform="translate(14.0232,-70.1159)">
					<title>Sheet.271</title>
				</g>
				<g id="shape272-190" transform="translate(18.6976,-73.2322)">
					<title>Sheet.272</title>
				</g>
			</g>
		</g>
		<g id="shape273-191" transform="translate(253.474,-91.2754) rotate(0.0542831)">
			<title>Basic Arrow 1.545</title>
			<path d="M0 359.05 L299.2 359.05" class="st18"/>
		</g>
		<g id="shape274-198" transform="translate(252.063,-176.644) rotate(-0.304459)">
			<title>Gray Arrow 1.566</title>
			<path d="M0 359.05 L97.1 359.05" class="st18"/>
		</g>
		<g id="shape275-204" transform="translate(782.108,96.0759) rotate(89.7194)">
			<title>Yellow Arrow 1.568</title>
			<path d="M0 359.05 L31.61 359.05" class="st18"/>
		</g>
		<g id="shape276-210" transform="translate(929.951,96.4145) rotate(89.8853)">
			<title>Yellow Arrow 1.116</title>
			<path d="M0 359.05 L131.37 359.05" class="st18"/>
		</g>
		<g id="shape277-216" transform="translate(255.873,-261.22) rotate(-0.0244648)">
			<title>Line.117</title>
			<path d="M0 359.05 L314.59 359.05" class="st5"/>
		</g>
	</g>
</svg>
